<svg width="100" height="100" viewBox="0 0 100 100" fill="none" xmlns="http://www.w3.org/2000/svg">
<circle cx="50" cy="50" r="50" fill="white"/>
<ellipse cx="49.9457" cy="50.2031" rx="32.9457" ry="33.2031" fill="#111111"/>
<path d="M44.4099 61.1562V40.6762L46.6499 42.9162H39.9299V38.7562H49.5939V61.1562H44.4099ZM56.4291 61.4123C55.5758 61.4123 54.8398 61.1242 54.2211 60.5482C53.6238 59.9509 53.3251 59.1936 53.3251 58.2762C53.3251 57.3589 53.6238 56.6229 54.2211 56.0682C54.8398 55.4922 55.5758 55.2042 56.4291 55.2042C57.3038 55.2042 58.0398 55.4922 58.6371 56.0682C59.2344 56.6229 59.5331 57.3589 59.5331 58.2762C59.5331 59.1936 59.2344 59.9509 58.6371 60.5482C58.0398 61.1242 57.3038 61.4123 56.4291 61.4123Z" fill="white"/>
</svg>
