<svg width="100" height="100" viewBox="0 0 100 100" fill="none" xmlns="http://www.w3.org/2000/svg">
<circle cx="50" cy="50" r="50" fill="white"/>
<ellipse cx="49.9457" cy="50.2031" rx="32.9457" ry="33.2031" fill="#111111"/>
<path d="M45.8558 61.384C44.2984 61.384 42.7518 61.1813 41.2158 60.776C39.6798 60.3493 38.3784 59.752 37.3117 58.984L39.3278 55.016C40.1811 55.6347 41.1731 56.1253 42.3038 56.488C43.4344 56.8507 44.5758 57.032 45.7278 57.032C47.0291 57.032 48.0531 56.776 48.7998 56.264C49.5464 55.752 49.9198 55.048 49.9198 54.152C49.9198 53.2987 49.5891 52.6267 48.9278 52.136C48.2664 51.6453 47.1998 51.4 45.7278 51.4H43.3598V47.976L49.5998 40.904L50.1758 42.76H38.4318V38.6H54.1118V41.96L47.9038 49.032L45.2798 47.528H46.7838C49.5358 47.528 51.6158 48.1467 53.0238 49.384C54.4318 50.6213 55.1358 52.2107 55.1358 54.152C55.1358 55.4107 54.8051 56.5947 54.1438 57.704C53.4824 58.792 52.4691 59.6773 51.1038 60.36C49.7384 61.0427 47.9891 61.384 45.8558 61.384ZM60.4733 61.256C59.6199 61.256 58.8839 60.968 58.2653 60.392C57.6679 59.7947 57.3693 59.0373 57.3693 58.12C57.3693 57.2027 57.6679 56.4667 58.2653 55.912C58.8839 55.336 59.6199 55.048 60.4733 55.048C61.3479 55.048 62.0839 55.336 62.6813 55.912C63.2786 56.4667 63.5773 57.2027 63.5773 58.12C63.5773 59.0373 63.2786 59.7947 62.6813 60.392C62.0839 60.968 61.3479 61.256 60.4733 61.256Z" fill="white"/>
</svg>
