<svg width="100" height="100" viewBox="0 0 100 100" fill="none" xmlns="http://www.w3.org/2000/svg">
<circle cx="50" cy="50" r="50" fill="white"/>
<ellipse cx="49.9457" cy="50.2031" rx="32.9457" ry="33.2031" fill="#111111"/>
<path d="M39.2747 61V57.64L47.9148 49.48C48.5974 48.8613 49.0988 48.3067 49.4188 47.816C49.7388 47.3253 49.9521 46.8773 50.0588 46.472C50.1868 46.0667 50.2508 45.6933 50.2508 45.352C50.2508 44.456 49.9414 43.7733 49.3228 43.304C48.7254 42.8133 47.8401 42.568 46.6667 42.568C45.7281 42.568 44.8534 42.7493 44.0428 43.112C43.2534 43.4747 42.5814 44.04 42.0268 44.808L38.2508 42.376C39.1041 41.096 40.2988 40.0827 41.8348 39.336C43.3708 38.5893 45.1414 38.216 47.1468 38.216C48.8108 38.216 50.2614 38.4933 51.4988 39.048C52.7574 39.5813 53.7281 40.3387 54.4108 41.32C55.1148 42.3013 55.4668 43.4747 55.4668 44.84C55.4668 45.5653 55.3708 46.2907 55.1788 47.016C55.0081 47.72 54.6454 48.4667 54.0908 49.256C53.5574 50.0453 52.7681 50.9307 51.7228 51.912L44.5548 58.664L43.5628 56.776H56.2028V61H39.2747ZM61.5983 61.256C60.7449 61.256 60.0089 60.968 59.3903 60.392C58.7929 59.7947 58.4943 59.0373 58.4943 58.12C58.4943 57.2027 58.7929 56.4667 59.3903 55.912C60.0089 55.336 60.7449 55.048 61.5983 55.048C62.4729 55.048 63.2089 55.336 63.8063 55.912C64.4036 56.4667 64.7023 57.2027 64.7023 58.12C64.7023 59.0373 64.4036 59.7947 63.8063 60.392C63.2089 60.968 62.4729 61.256 61.5983 61.256Z" fill="white"/>
</svg>
